<svg xmlns="http://www.w3.org/2000/svg" aria-hidden="true" style="position:absolute;width:0;height:0;overflow:hidden"><defs>
<symbol id="icon-input" viewBox="0 0 32 32"><path d="M8.438 16.937c1.167 1.167 2.583 1.75 4.25 1.75s3.083-.583 4.25-1.75c1.167-1.167 1.75-2.583 1.75-4.25s-.583-3.083-1.75-4.25c-1.167-1.167-2.583-1.75-4.25-1.75s-3.083.583-4.25 1.75c-1.167 1.167-1.75 2.583-1.75 4.25s.583 3.083 1.75 4.25zm12.249 1.75 6.625 6.625-2 2-6.625-6.625v-1.062l-.375-.375c-1.583 1.375-3.458 2.063-5.625 2.063-2.417 0-4.479-.833-6.188-2.5-1.667-1.667-2.5-3.708-2.5-6.125s.833-4.458 2.5-6.125C8.207 4.855 10.27 4 12.687 4s4.458.854 6.125 2.563c1.667 1.667 2.5 3.708 2.5 6.125 0 2.167-.687 4.042-2.063 5.625l.375.375h1.062z"/></symbol>
<symbol id="icon-menu-btn" viewBox="0 0 32 32"><path d="M4 8h24v2.687H4V8zm0 9.313v-2.625h24v2.625H4zM4 24v-2.687h24V24H4z"/></symbol>
<symbol id="icon-logo" viewBox="0 0 102 32"><path d="m0 30.893 2.17-1.404V2.638L.213 1.702v-.511L5.575-.001v29.489l2.128 1.404v.468H.001v-.468zm72.51-1.404-2.17 1.404v.468h7.702v-.468l-2.128-1.404V0l-5.362 1.192v.511l1.957.936V29.49zM33.574 10.383c5.021 0 7.489 4.723 7.489 9.957s-2.468 9.915-7.489 9.957c-5.021 0-7.489-4.723-7.489-9.957s2.468-9.957 7.489-9.957zm0-1.702c-6.638 0-11.489 4.979-11.489 11.659S26.936 32 33.574 32s11.489-4.979 11.489-11.66S40.212 8.681 33.574 8.681zM11.021 18.51l9.532 10.979 2.383 1.362v.511h-5.149c-.936-.894-10.425-11.957-10.425-11.957l8.468-8.383L14 9.831V9.32h6.894v.511l-2.468 1.191-7.404 7.489zm51.319 4.256v-3.192c-8.298.766-10.851 2.596-10.851 6.255 0 2.766 1.915 4.383 4.298 4.383 3.915-.043 6.553-3.064 6.553-7.447zm-14.468 2.979c0-4.851 5.149-7.191 14.468-7.745v-2.553c0-3.447-2.042-5.064-4.851-5.064-2.468 0-4.383 1.404-5.021 3.745-.341 1.319-1.106 1.957-1.958 1.957-.894 0-1.574-.766-1.574-1.745 0-.553.085-.936.511-1.702 1.149-2.213 4.511-3.957 8.043-3.957 4.511 0 8.298 1.447 8.298 7.787v12.979l2.17 1.404v.511h-5.277V27.49c-1.447 2.808-3.957 4.468-7.362 4.468-3.872.043-7.447-1.872-7.447-6.213zm46.979-6.17v3.192c0 4.383-2.596 7.404-6.553 7.447-2.383 0-4.298-1.617-4.298-4.383 0-3.66 2.553-5.489 10.851-6.255zM94.893 18c-9.319.553-14.468 2.894-14.468 7.745 0 4.34 3.532 6.255 7.447 6.213 3.404 0 5.915-1.66 7.362-4.468v3.872h5.276v-.511l-2.17-1.404V16.468c0-6.34-3.787-7.787-8.298-7.787-3.532 0-6.894 1.745-8.042 3.957-.426.766-.511 1.149-.511 1.702 0 .979.681 1.745 1.575 1.745.851 0 1.617-.638 1.957-1.957.638-2.34 2.553-3.745 5.021-3.745 2.808 0 4.851 1.617 4.851 5.064V18z"/></symbol></defs></svg>